<?xml version="1.0" standalone="no"?>
<!DOCTYPE svg PUBLIC "-//W3C//DTD SVG 20010904//EN"
 "http://www.w3.org/TR/2001/REC-SVG-20010904/DTD/svg10.dtd">
<svg version="1.0" xmlns="http://www.w3.org/2000/svg"
 width="512.000000pt" height="512.000000pt" viewBox="0 0 512.000000 512.000000"
 preserveAspectRatio="xMidYMid meet">
<g transform="translate(0.000000,512.000000) scale(0.100000,-0.100000)"
fill="#000000" stroke="none">
<path d="M2445 4342 c-325 -31 -581 -247 -655 -553 -10 -38 -14 -138 -14 -329
l-1 -275 -55 -44 c-226 -184 -405 -474 -459 -741 -6 -30 -13 -68 -17 -85 -14
-64 -13 -339 1 -418 74 -409 306 -743 658 -945 138 -79 313 -141 446 -158 25
-3 54 -8 63 -10 23 -7 245 -7 283 -1 17 3 52 8 79 12 58 7 194 42 218 55 10 6
23 10 29 10 17 0 177 77 234 112 268 168 470 423 569 718 26 78 28 86 51 210
22 118 17 333 -11 465 -67 325 -205 550 -484 793 l-35 30 -1 258 c-1 143 -4
279 -8 304 -34 215 -179 411 -381 513 -52 26 -128 53 -167 61 -13 2 -39 7 -58
11 -38 7 -236 12 -285 7z m251 -205 c219 -35 401 -201 440 -399 7 -36 13 -398
7 -410 -2 -4 -27 2 -56 13 -65 26 -270 75 -362 88 -114 15 -317 6 -434 -18
-57 -12 -108 -23 -114 -24 -5 -1 -52 -16 -103 -33 -52 -18 -96 -29 -97 -25 -7
11 0 355 7 400 34 210 232 386 460 408 33 3 62 6 63 7 4 3 164 -3 189 -7z
m-16 -911 c175 -14 307 -55 455 -144 68 -41 60 -36 140 -100 208 -169 351
-413 399 -682 15 -83 16 -322 2 -380 -7 -27 -13 -56 -21 -95 -11 -52 -65 -189
-101 -254 -53 -97 -113 -177 -192 -257 -336 -341 -847 -433 -1279 -229 -338
159 -575 469 -639 837 -14 80 -14 319 0 378 3 14 9 41 12 60 12 61 72 220 110
289 184 330 523 554 877 578 50 3 93 7 95 8 2 2 17 1 35 -1 18 -1 66 -5 107
-8z"/>
<path d="M2454 2497 c-112 -54 -168 -182 -131 -299 18 -56 51 -99 104 -136
l32 -22 3 -186 3 -186 28 -24 c38 -33 86 -32 121 2 14 15 26 29 27 33 1 3 2
85 3 181 1 168 2 175 23 185 41 21 91 71 114 115 31 58 33 167 5 220 -45 86
-116 131 -216 137 -54 3 -74 0 -116 -20z"/>
</g>
</svg>
